<mxfile host="app.diagrams.net" agent="Mozilla/5.0 (Macintosh; Intel Mac OS X 10_15_7) AppleWebKit/537.36 (KHTML, like Gecko) Chrome/131.0.0.0 Safari/537.36" version="26.0.10">
  <diagram name="Page-1" id="c37626ed-c26b-45fb-9056-f9ebc6bb27b6">
    <mxGraphModel dx="1363" dy="913" grid="1" gridSize="10" guides="1" tooltips="1" connect="1" arrows="1" fold="1" page="1" pageScale="1" pageWidth="1169" pageHeight="827" background="none" math="0" shadow="0">
      <root>
        <mxCell id="0" />
        <mxCell id="1" parent="0" />
        <mxCell id="pkdH5wE8G_Pr-lmgHp1S-8" value="" style="rounded=1;whiteSpace=wrap;html=1;" vertex="1" parent="1">
          <mxGeometry x="80" y="280" width="660" height="220" as="geometry" />
        </mxCell>
        <mxCell id="pkdH5wE8G_Pr-lmgHp1S-6" value="" style="shape=mxgraph.cisco.switches.workgroup_switch;sketch=0;html=1;pointerEvents=1;dashed=0;fillColor=#036897;strokeColor=#ffffff;strokeWidth=2;verticalLabelPosition=bottom;verticalAlign=top;align=center;outlineConnect=0;" vertex="1" parent="1">
          <mxGeometry x="570" y="297" width="141.4" height="70" as="geometry" />
        </mxCell>
        <mxCell id="pkdH5wE8G_Pr-lmgHp1S-7" value="" style="shape=mxgraph.cisco.modems_and_phones.cable_modem;sketch=0;html=1;pointerEvents=1;dashed=0;fillColor=#036897;strokeColor=#ffffff;strokeWidth=2;verticalLabelPosition=bottom;verticalAlign=top;align=center;outlineConnect=0;" vertex="1" parent="1">
          <mxGeometry x="110" y="70" width="105.72" height="50" as="geometry" />
        </mxCell>
        <mxCell id="pkdH5wE8G_Pr-lmgHp1S-4" style="edgeStyle=orthogonalEdgeStyle;rounded=0;orthogonalLoop=1;jettySize=auto;html=1;exitX=0.5;exitY=1;exitDx=0;exitDy=0;entryX=0.5;entryY=0;entryDx=0;entryDy=0;strokeColor=default;endArrow=none;startFill=0;strokeWidth=3;" edge="1" parent="1" source="pkdH5wE8G_Pr-lmgHp1S-2" target="pkdH5wE8G_Pr-lmgHp1S-3">
          <mxGeometry relative="1" as="geometry" />
        </mxCell>
        <mxCell id="pkdH5wE8G_Pr-lmgHp1S-2" value="" style="rounded=1;whiteSpace=wrap;html=1;fillColor=#f8cecc;strokeColor=#b85450;" vertex="1" parent="1">
          <mxGeometry x="130" y="119" width="50" height="20" as="geometry" />
        </mxCell>
        <mxCell id="pkdH5wE8G_Pr-lmgHp1S-3" value="" style="rounded=1;whiteSpace=wrap;html=1;fillColor=#f8cecc;strokeColor=#b85450;" vertex="1" parent="1">
          <mxGeometry x="130" y="269" width="50" height="20" as="geometry" />
        </mxCell>
      </root>
    </mxGraphModel>
  </diagram>
</mxfile>
